<svg width="280" height="362" viewBox="0 0 280 362" fill="none" xmlns="http://www.w3.org/2000/svg">
<path d="M42 139.495V233.101C42 245.549 33.1771 255.492 21.9479 255.492C10.7917 255.492 0 245.468 0 233.101V139.495C0 127.289 10.7917 117.266 21.9479 117.266C32.9583 117.266 42 127.289 42 139.495ZM49.875 266.404C49.875 279.661 59.5 290.331 71.4583 290.331H85.9687L86.1875 339.72C86.1875 369.548 126.437 369.305 126.437 339.72V290.331H153.563V339.72C153.563 369.386 194.031 369.467 194.031 339.72V290.331H208.76C220.573 290.331 230.198 279.661 230.198 266.404V121.388H49.875V266.404ZM230.708 113.548H49.0729C49.0729 78.9508 67.7396 48.8807 95.4479 33.199L81.5208 4.66474C79.4792 0.703893 84.6562 -1.80195 86.4062 1.59306L100.552 30.3698C126 17.8406 155.24 18.4873 179.521 30.3698L193.594 1.6739C195.417 -1.80195 200.521 0.784726 198.479 4.74557L184.552 33.199C212.042 48.8807 230.708 78.9508 230.708 113.548ZM106.24 68.685C106.24 64.0775 102.885 60.1974 98.5833 60.1974C94.4271 60.1974 91.1458 64.0775 91.1458 68.685C91.1458 73.2925 94.5 77.1725 98.5833 77.1725C102.885 77.1725 106.24 73.2925 106.24 68.685ZM188.927 68.685C188.927 64.0775 185.573 60.1974 181.49 60.1974C177.187 60.1974 173.833 64.0775 173.833 68.685C173.833 73.2925 177.187 77.1725 181.49 77.1725C185.573 77.1725 188.927 73.2925 188.927 68.685ZM258.052 117.266C247.042 117.266 238 127.047 238 139.495V233.101C238 245.549 247.042 255.492 258.052 255.492C269.281 255.492 280 245.468 280 233.101V139.495C280 127.047 269.208 117.266 258.052 117.266Z" fill="#A4C639"/>
</svg>
